<?xml version="1.0" encoding="UTF-8" standalone="no"?>
<svg
   xmlns:dc="http://purl.org/dc/elements/1.1/"
   xmlns:cc="http://creativecommons.org/ns#"
   xmlns:rdf="http://www.w3.org/1999/02/22-rdf-syntax-ns#"
   xmlns:svg="http://www.w3.org/2000/svg"
   xmlns="http://www.w3.org/2000/svg"
   xmlns:sodipodi="http://sodipodi.sourceforge.net/DTD/sodipodi-0.dtd"
   xmlns:inkscape="http://www.inkscape.org/namespaces/inkscape"
   sodipodi:docname="main.svg"
   inkscape:version="1.0 (4035a4fb49, 2020-05-01)"
   id="svg8"
   version="1.1"
   viewBox="0 0 11.404173 9.7016459"
   height="9.7016459mm"
   width="11.404173mm">
  <defs
     id="defs2">
    <inkscape:path-effect
       bendpath3-nodetypes="cc"
       bendpath2-nodetypes="cc"
       bendpath1-nodetypes="cc"
       bendpath4-nodetypes="cc"
       bendpath4="m 86.400923,137.6163 c -0.05433,3.02228 -0.09899,6.13447 0,10.58333"
       bendpath3="m 86.881006,148.87007 c 1.727753,-0.19898 6.133502,-1.5617 4.152905,-2.4902"
       bendpath2="m 90.121753,137.6163 c -0.943316,3.3894 -3.148093,6.59376 0,10.58333"
       bendpath1="m 86.400923,137.6163 c 1.605104,0.12131 5.380162,0.63033 5.209088,1.62821"
       xx="true"
       yy="true"
       lpeversion="1"
       is_visible="true"
       id="path-effect919"
       effect="envelope" />
    <inkscape:path-effect
       effect="envelope"
       id="path-effect910"
       is_visible="true"
       lpeversion="1"
       yy="true"
       xx="true"
       bendpath1="m 86.086217,123.11911 1.713008,-1.19516"
       bendpath2="m 88.952292,122.66558 c 1.041403,2.58191 1.24182,5.28042 0.904434,8.05346"
       bendpath3="m 86.057012,130.93528 2.999391,0.52647"
       bendpath4="m 86.086217,123.11911 0.904433,8.05347"
       bendpath1-nodetypes="cc"
       bendpath2-nodetypes="cc"
       bendpath3-nodetypes="cc" />
    <inkscape:path-effect
       bendpath1-nodetypes="cc"
       bendpath4-nodetypes="cc"
       bendpath3-nodetypes="cc"
       bendpath4="m 85.993505,124.69537 c -0.04528,2.9599 -2.297263,3.47116 0,9.03043"
       bendpath3="m 85.993505,134.37011 c 3.157312,-0.9675 6.567199,-0.95409 6.128904,-1.44202"
       bendpath2="m 91.023894,124.69537 v 9.03043"
       bendpath1="m 86.830469,125.1249 c 2.158697,1.17622 5.320276,1.82377 5.710423,1.28861"
       xx="true"
       yy="true"
       lpeversion="1"
       is_visible="true"
       id="path-effect891"
       effect="envelope" />
    <inkscape:path-effect
       effect="envelope"
       id="path-effect889"
       is_visible="true"
       lpeversion="1"
       yy="true"
       xx="true"
       bendpath1="M 95.779109,125.04225 100.42487,119.486"
       bendpath2="m 101.58242,125.04225 c 3.30458,1.33437 4.6709,3.71242 0,9.34128"
       bendpath3="m 95.779109,134.38353 c 0.03832,-0.92789 1.625941,-1.09761 5.803311,0"
       bendpath4="m 95.779109,125.04225 2.711979,5.93477"
       bendpath3-nodetypes="cc"
       bendpath1-nodetypes="cc"
       bendpath2-nodetypes="cc"
       bendpath4-nodetypes="cc" />
    <inkscape:path-effect
       bendpath4-nodetypes="cc"
       bendpath2-nodetypes="cc"
       bendpath1-nodetypes="cc"
       bendpath3-nodetypes="cc"
       bendpath4="m 88.986763,124.78039 1.922991,5.61717"
       bendpath3="m 88.641451,133.43667 c 0.06457,-0.85819 1.325016,-0.94661 4.584432,0.25165"
       bendpath2="m 93.571195,125.03203 c 2.561187,1.37982 3.55262,3.64274 -0.345312,8.65629"
       bendpath1="m 88.986763,124.78039 3.875397,-4.94736"
       xx="true"
       yy="true"
       lpeversion="1"
       is_visible="true"
       id="path-effect870"
       effect="envelope" />
    <inkscape:path-effect
       bendpath3-nodetypes="cc"
       bendpath2-nodetypes="cc"
       bendpath1-nodetypes="cc"
       bendpath4="m 89.446542,126.30418 0.918475,4.8752"
       bendpath3="m 89.670605,131.02545 2.223453,0.352"
       bendpath2="m 91.541116,126.06267 c 0.847363,-0.99535 1.079601,2.09441 0.918477,4.87518"
       bendpath1="m 89.446542,126.30418 1.157475,-1.30086"
       xx="true"
       yy="true"
       lpeversion="1"
       is_visible="true"
       id="path-effect868"
       effect="envelope" />
    <rect
       id="rect835"
       height="43.467262"
       width="33.072918"
       y="119.81845"
       x="78.241074" />
  </defs>
  <sodipodi:namedview
     inkscape:window-maximized="1"
     inkscape:window-y="-11"
     inkscape:window-x="-11"
     inkscape:window-height="1346"
     inkscape:window-width="2560"
     inkscape:snap-nodes="false"
     inkscape:object-nodes="false"
     inkscape:snap-others="false"
     showgrid="false"
     inkscape:document-rotation="0"
     inkscape:current-layer="text833"
     inkscape:document-units="mm"
     inkscape:cy="23.962054"
     inkscape:cx="26.361907"
     inkscape:zoom="11.313709"
     inkscape:pageshadow="2"
     inkscape:pageopacity="0.0"
     borderopacity="1.0"
     bordercolor="#666666"
     pagecolor="#ffffff"
     id="base" />
  <metadata
     id="metadata5">
    <rdf:RDF>
      <cc:Work
         rdf:about="">
        <dc:format>image/svg+xml</dc:format>
        <dc:type
           rdf:resource="http://purl.org/dc/dcmitype/StillImage" />
        <dc:title />
      </cc:Work>
    </rdf:RDF>
  </metadata>
  <g
     id="layer1"
     inkscape:groupmode="layer"
     inkscape:label="Layer 1"
     transform="translate(-84.366666,-123.96902)">
    <g
       style="font-style:normal;font-weight:normal;font-size:10.5833px;line-height:1.25;font-family:sans-serif;letter-spacing:0px;word-spacing:0px;white-space:pre;shape-inside:url(#rect835);fill:#000000;fill-opacity:1;stroke:none"
       id="text833"
       aria-label="{{}}">
      <path
         inkscape:original-d="m 86.535217,130.6526 q -0.024,-0.0122 -0.03934,-0.0461 -0.0153,-0.0339 -0.01408,-0.0618 0.0013,-0.0279 0.02269,-0.0521 0.01953,-0.0284 0.04287,-0.0484 0.02342,-0.0199 0.07368,-0.0622 0.05394,-0.0444 0.09341,-0.0799 0.240358,-0.22549 0.361195,-0.57206 0.124459,-0.3488 0.02606,-0.68914 -0.02386,-0.0937 -0.100471,-0.26309 l -0.854172,-1.88877 q -0.20301,-0.4489 -0.137631,-0.82604 0.06833,-0.41154 0.366362,-0.76524 0.299734,-0.36017 0.628261,-0.56461 0.133576,-0.0831 0.174017,0.0165 0.01916,0.0424 0.007,0.077 -0.0121,0.0346 -0.04796,0.0678 -0.03589,0.0331 -0.08258,0.0731 -0.04312,0.0377 -0.105965,0.093 -0.05924,0.0532 -0.10933,0.10605 -0.519005,0.6323 -0.195338,1.348 l 0.882898,1.9523 q 0.411765,0.9105 -0.352291,1.71701 0.997708,-0.28985 1.386492,0.56984 l 0.871409,1.92689 q 0.09385,0.20752 0.156165,0.3044 0.184607,0.26499 0.50972,0.33943 0.328727,0.0722 0.687237,-0.0966 0.188388,-0.0847 0.226692,1e-5 0.04405,0.0974 -0.0787,0.1738 -0.523477,0.32575 -1.070134,0.32405 -0.544742,0.003 -0.826803,-0.46772 -0.04553,-0.0802 -0.12022,-0.24537 l -0.859919,-1.90148 q -0.13023,-0.28796 -0.32899,-0.44104 -0.19515,-0.15532 -0.389134,-0.16486 -0.195897,-0.0137 -0.328878,0.009 -0.129356,0.0209 -0.227283,0.06 -0.02166,0.0134 -0.06684,0.0364 -0.04156,0.0206 -0.0688,0.032 -0.02713,0.0116 -0.05629,0.0187 -0.03102,0.003 -0.05502,-0.009 z"
         inkscape:path-effect="#path-effect891"
         id="path839"
         style="font-style:normal;font-variant:normal;font-weight:normal;font-stretch:normal;font-family:'CMU Serif';-inkscape-font-specification:'CMU Serif';fill:none;fill-opacity:1;stroke-width:0.07;stroke:#000000;stroke-opacity:1;stroke-miterlimit:4;stroke-dasharray:none"
         d="m 85.537895,130.58425 c -0.01983,-0.009 -0.03701,-0.0252 -0.0515,-0.0484 -0.01445,-0.0232 -0.02213,-0.0442 -0.0231,-0.0627 -9.13e-4,-0.0186 0.0062,-0.0354 0.02138,-0.0505 0.01347,-0.0179 0.02884,-0.0329 0.04609,-0.0449 0.01671,-0.0115 0.04532,-0.0309 0.08272,-0.0553 0.04116,-0.0261 0.07654,-0.0488 0.107361,-0.0694 0.186682,-0.13101 0.330486,-0.29398 0.434893,-0.49412 0.107603,-0.20127 0.128425,-0.39952 0.0638,-0.61292 -0.01518,-0.059 -0.04934,-0.14098 -0.100155,-0.25266 -0.06049,-0.13296 -0.115607,-0.26767 -0.164273,-0.40438 -0.184177,-0.52403 -0.276661,-1.05769 -0.347359,-1.63921 -0.04136,-0.34017 0.0065,-0.62686 0.142366,-0.83514 0.147701,-0.23065 0.392094,-0.42004 0.768646,-0.53367 0.387159,-0.11904 0.788732,-0.15537 1.192423,-0.11787 0.163187,0.0152 0.232024,0.0582 0.2136,0.12023 -0.0063,0.0277 -0.02359,0.0471 -0.05201,0.0587 -0.02837,0.0116 -0.06632,0.0184 -0.113841,0.0206 -0.04803,0.002 -0.100567,0.004 -0.160536,0.007 -0.05487,0.003 -0.123221,0.007 -0.201984,0.0125 -0.07508,0.006 -0.145236,0.015 -0.210523,0.0262 -0.704827,0.16102 -0.962023,0.58866 -0.89101,1.1096 0.0959,0.70356 0.246606,1.34433 0.514005,1.9433 0.01338,0.0293 0.02704,0.0585 0.04097,0.0877 0.267248,0.55968 0.09804,0.98728 -0.552693,1.44099 0.868325,-0.10726 1.517814,0.11423 1.907388,0.60214 0.338014,0.42333 0.725139,0.87531 1.109042,1.28701 0.122849,0.1332 0.248907,0.26463 0.378312,0.39411 0.115856,0.11593 0.211621,0.19961 0.281078,0.25064 0.002,0.001 0.004,0.003 0.006,0.004 0.205918,0.13643 0.437128,0.20859 0.671918,0.23346 0.121209,0.012 0.230546,0.009 0.329111,-0.007 0.05688,0.006 0.121931,-0.006 0.193617,-0.0346 0,0 0,0 0,0 0.0308,-0.0152 0.05729,-0.0282 0.08048,-0.0409 0.05609,-0.0292 0.08054,-0.0311 0.0972,-0.0194 -0.01653,0.0546 -0.0092,0.0979 -7.41e-4,0.12767 0.02762,0.0976 0.02689,0.0666 0.05606,0.0219 0,0 0,0 0,0 0,0 0,0 0,0 0,0 0,0 0,0 0,0 0,0 0,0 -0.0015,0.005 -0.0038,0.009 -0.0069,0.0132 -0.02517,0.0341 -0.07381,0.0611 -0.141565,0.0992 -0.06072,0.0306 -0.117531,0.052 -0.174868,0.0675 -0.144976,0.0546 -0.314827,0.0973 -0.520034,0.12329 -0.100894,0.0135 -0.203626,0.019 -0.307685,0.0154 0,0 0,0 0,0 -0.172385,-0.006 -0.345548,-0.0403 -0.51427,-0.10864 0,0 0,0 0,0 -0.111402,-0.0448 -0.22021,-0.10392 -0.324616,-0.17829 -0.05836,-0.0433 -0.141052,-0.11214 -0.243309,-0.20623 -0.575871,-0.52982 -1.134704,-1.15036 -1.601576,-1.72687 -0.145321,-0.17944 -0.310339,-0.31865 -0.499658,-0.42088 -0.185972,-0.10331 -0.36492,-0.16503 -0.536386,-0.18211 -0.173853,-0.0198 -0.315062,-0.0271 -0.427346,-0.0203 -0.10906,0.006 -0.202018,0.0188 -0.280189,0.0392 -0.01708,0.008 -0.04306,0.0177 -0.07838,0.0307 -0.03246,0.0115 -0.05895,0.0205 -0.08009,0.0268 -0.02097,0.006 -0.0428,0.0115 -0.06548,0.015 -0.02447,7.4e-4 -0.04657,-0.003 -0.0664,-0.0122 0,0 4.1e-5,2.4e-4 4.1e-5,2.4e-4 z" />
      <path
         inkscape:original-d="m 90.352453,131.11064 q -0.0031,-0.0335 0.03023,-0.0444 0.0334,-0.0109 0.116912,-0.0235 0.08349,-0.0131 0.145029,-0.0342 0.446152,-0.15377 0.408011,-0.5598 l -0.104043,-1.10756 q -0.04852,-0.51653 0.58139,-0.68667 -0.657443,-0.12303 -0.702809,-0.60589 l -0.103138,-1.09793 q -0.01106,-0.11773 -0.02722,-0.17739 -0.05273,-0.16683 -0.233077,-0.28318 -0.177707,-0.11642 -0.427942,-0.13134 -0.0052,9e-5 -0.03189,-8e-4 -0.02395,-8e-4 -0.03464,-0.003 -0.01077,-0.003 -0.02961,-0.006 -0.01896,-0.004 -0.02796,-0.016 -0.009,-0.0115 -0.01041,-0.0262 -0.0057,-0.06 0.08406,-0.0634 0.382492,-0.0143 0.708021,0.1259 0.32528,0.13754 0.391706,0.42199 0.0098,0.0479 0.01857,0.14157 l 0.101336,1.07871 q 0.01532,0.16338 0.09544,0.28339 0.08274,0.11992 0.199176,0.17593 0.116206,0.0536 0.192574,0.0772 0.07898,0.0237 0.156373,0.0305 0.01584,-6.8e-4 0.04499,0.002 0.0319,8e-4 0.05099,0.008 0.01896,0.004 0.03779,0.009 0.01896,0.004 0.0306,0.0158 0.01166,0.0116 0.01302,0.0258 0.0017,0.0192 -0.0049,0.0316 -0.0069,0.0122 -0.0272,0.0203 -0.02058,0.007 -0.04418,0.009 -0.02093,0.004 -0.05735,0.01 -0.0365,0.007 -0.0677,0.0121 -0.192051,0.0405 -0.339276,0.16432 -0.144587,0.12341 -0.159088,0.30718 -0.0062,0.0483 0.003,0.14454 l 0.100655,1.0715 q 0.0092,0.0985 0.0041,0.15656 -0.0021,0.0605 -0.05565,0.16838 -0.05075,0.10794 -0.161558,0.1964 -0.289239,0.21791 -0.764083,0.23531 -0.09498,0.003 -0.100152,-0.0517 z"
         inkscape:path-effect="#path-effect868"
         id="path843"
         style="font-style:normal;font-variant:normal;font-weight:normal;font-stretch:normal;font-family:'CMU Serif';-inkscape-font-specification:'CMU Serif';stroke-width:0.07;stroke:#000000;stroke-opacity:1;fill:none;stroke-miterlimit:4;stroke-dasharray:none"
         d="m 90.336168,130.85466 c 0.01376,-0.0271 0.0303,-0.0451 0.05159,-0.0541 0.02118,-0.009 0.05603,-0.0188 0.106249,-0.0273 0.05116,-0.009 0.09901,-0.02 0.144825,-0.0355 0.343531,-0.11696 0.601323,-0.35679 0.662237,-0.70769 0.07825,-0.45074 0.05194,-0.874 -0.0051,-1.25581 -0.05056,-0.33823 0.106616,-0.68896 0.494871,-0.85577 -0.438416,-0.0427 -0.708322,-0.14223 -0.823694,-0.46925 -0.01588,-0.045 -0.03238,-0.09 -0.04954,-0.13476 -0.135513,-0.33757 -0.267386,-0.61208 -0.506353,-0.88254 -0.0053,-0.006 -0.01049,-0.0118 -0.01565,-0.0174 0,0 0,0 0,0 -0.05015,-0.0451 -0.08073,-0.0844 -0.104962,-0.10904 -0.02303,-0.0215 -0.04626,-0.0397 -0.07069,-0.0543 -0.06882,-0.0492 -0.1576,-0.0663 -0.248373,-0.0609 -0.129901,0.007 -0.220904,0.0696 -0.462467,0.0982 -0.0037,6.2e-4 -0.02104,0.003 -0.04772,0.005 -0.02496,0.002 -0.04558,0.002 -0.05838,0.002 -0.01402,-0.001 -0.03115,-0.002 -0.05608,-0.003 -0.02486,-0.002 -0.04574,-0.006 -0.06094,-0.0128 -0.01515,-0.006 -0.02553,-0.0133 -0.03125,-0.0209 -0.02415,-0.0324 0.02674,-0.0426 0.106896,-0.0527 0.343904,-0.0432 0.345829,-0.22643 0.533857,-0.29854 0.140669,-0.0559 0.372222,-0.0262 0.541073,0.0966 0,0 0,0 0,0 0.04,0.0267 0.07586,0.0563 0.111333,0.0891 0.02738,0.0264 0.06372,0.0666 0.117488,0.11336 0,0 0,0 0,0 0,0 0,0 0,0 0,0 0,0 0,0 0,0 0,0 0,0 0,0 0,0 0,0 0,0 0,0 0,0 -4e-6,0 0.0028,0.003 0.0028,0.003 0.300823,0.30679 0.455986,0.59121 0.61276,0.96053 0.01402,0.0343 0.02756,0.0687 0.04066,0.10321 0.04391,0.11557 0.09841,0.20852 0.169612,0.28454 0.07255,0.0752 0.149296,0.12774 0.234548,0.15893 0.0859,0.0298 0.155532,0.0532 0.214256,0.0685 0.05952,0.015 0.119256,0.0254 0.180318,0.0312 0.01223,-3.9e-4 0.03006,6e-4 0.05364,0.003 0.02564,0.001 0.04699,0.005 0.06345,0.0114 0.01607,0.004 0.0323,0.008 0.04871,0.0127 0.01643,0.004 0.03028,0.0109 0.0413,0.0206 0.01103,0.01 0.01772,0.0199 0.02,0.0308 0.003,0.0148 0.002,0.0267 -0.0027,0.0357 -0.005,0.009 -0.01594,0.0158 -0.03244,0.0208 -0.01681,0.004 -0.0348,0.007 -0.05393,0.007 -0.02325,0.003 -0.0445,0.006 -0.06775,0.009 -0.02814,0.004 -0.0536,0.009 -0.07671,0.0122 -0.140757,0.0295 -0.246712,0.10051 -0.332045,0.20285 -0.08351,0.10169 -0.122207,0.22517 -0.121187,0.3617 -0.0013,0.0367 0.0036,0.0897 0.01337,0.16121 0.05254,0.38756 0.07659,0.81683 0.01992,1.26544 -0.01069,0.0843 -0.02577,0.15335 -0.04252,0.20488 -0.01507,0.0532 -0.05531,0.13009 -0.125952,0.22902 -0.06909,0.0996 -0.162816,0.19178 -0.278688,0.27275 -0.320729,0.21477 -0.614724,0.25844 -0.879127,0.24972 -0.04766,-0.002 -0.0566,-0.0237 -0.03408,-0.0678 8.96e-4,-0.002 0.0018,-0.003 0.0027,-0.005 z" />
      <path
         inkscape:original-d="m 92.180706,133.58594 c -0.01961,-0.0383 -0.01701,-0.0737 0.0074,-0.10605 0.0248,-0.0324 0.07176,-0.0803 0.140942,-0.14379 0.0692,-0.0635 0.126189,-0.12601 0.171079,-0.18736 0.326757,-0.44217 0.371758,-0.89487 0.135018,-1.35813 l -0.968674,-1.8955 c -0.301177,-0.58935 -0.209405,-1.16809 0.275315,-1.73625 -0.655621,0.23373 -1.116198,0.0694 -1.405781,-0.47585 -0.439904,-0.68413 -0.966623,-2.19941 -0.966623,-2.19941 -0.07443,-0.26421 -0.570051,-0.36971 -0.508863,-0.55319 0.211854,0.28316 0.617748,0.017 0.819499,0.31855 0.03269,0.0515 0.141742,0.0847 0.196374,0.19163 l 0.94346,1.84617 c 0.09525,0.18639 0.20898,0.32813 0.341178,0.42519 0.134536,0.0954 0.268386,0.14291 0.40155,0.14243 0.131767,-0.004 0.238067,-0.0128 0.318908,-0.0287 0.08316,-0.0175 0.161435,-0.0446 0.234807,-0.0813 0.01401,-0.01 0.03454,-0.0225 0.06161,-0.0379 0.02942,-0.0171 0.05436,-0.0272 0.075,-0.0303 0.01918,-0.006 0.03832,-0.012 0.05749,-0.018 0.01918,-0.007 0.03687,-0.006 0.05328,0.002 0.01633,0.007 0.0287,0.0188 0.03714,0.0352 0.01116,0.0219 0.01677,0.0421 0.01681,0.0609 0,0.0186 -0.0071,0.0386 -0.02179,0.06 -0.01586,0.0187 -0.03369,0.0366 -0.05331,0.0542 -0.01733,0.0159 -0.04094,0.038 -0.07082,0.0666 -0.02995,0.0285 -0.05746,0.0553 -0.08272,0.0805 -0.153319,0.15995 -0.265755,0.3564 -0.337315,0.58933 -0.06924,0.23126 -0.06462,0.46092 0.01376,0.68897 0.01869,0.0614 0.05605,0.14691 0.112059,0.25656 l 0.937156,1.83382 c 0.05743,0.11239 0.09828,0.20476 0.12256,0.27712 0.02803,0.0735 0.04475,0.19021 0.05031,0.35026 0.0078,0.1584 -0.01603,0.32256 -0.07237,0.49243 -0.152938,0.428 -0.43971,0.7899 -0.860326,1.08567 -0.08413,0.0592 -0.142301,0.0572 -0.174517,-0.006 z"
         inkscape:path-effect="#path-effect870"
         sodipodi:nodetypes="ccccssccccccsccccccscsscccccccscccscc"
         id="path845"
         d="m 92.155572,132.76386 c 0.01896,-0.0746 0.06088,-0.13846 0.124318,-0.1901 0.06237,-0.0503 0.171223,-0.12556 0.310435,-0.20898 0.140071,-0.0839 0.260288,-0.16204 0.360998,-0.23632 0.692348,-0.50683 1.037019,-0.92209 1.039569,-1.69367 0.0034,-1.02139 -0.183269,-1.87141 -0.544337,-2.57884 -0.290824,-0.5698 -0.294726,-1.00884 0.08079,-1.53774 0.05293,-0.0613 0.111594,-0.12295 0.174642,-0.18182 -0.874349,0.11734 -1.449057,0.22003 -2.026305,-0.11041 -0.112521,-0.0496 -0.235199,-0.11116 -0.360868,-0.17832 0,0 0,0 0,0 -0.452806,-0.25911 -0.929877,-0.44838 -1.256991,-0.60977 -0.325303,-0.1605 -0.505665,-0.31438 -0.505665,-0.31438 -0.07038,-0.078 -0.268442,-0.0431 -0.416545,-0.0622 -0.156899,-0.0203 -0.293042,-0.0957 -0.247346,-0.2062 0.243598,0.31032 0.605096,-0.32786 0.946517,-0.28828 0.05647,0.009 0.188448,-0.095 0.308425,-0.0579 0.196964,0.0609 0.404529,0.13255 0.628858,0.24044 0.501848,0.22483 1.00655,0.51748 1.460775,0.85045 0.192547,0.14115 0.386798,0.23551 0.590948,0.29882 0.205861,0.0607 0.396222,0.0933 0.570837,0.0941 0.171046,-0.003 0.309967,0.008 0.410534,0.0115 0.103897,0.003 0.19941,0.002 0.284412,-0.007 0.01512,-0.005 0.03846,-0.01 0.06903,-0.0139 0.03324,-0.005 0.06295,-0.002 0.08956,0.007 0.02356,0.005 0.04717,0.01 0.07082,0.0153 0.0233,0.004 0.04768,0.0184 0.0731,0.0408 0.0249,0.0211 0.04637,0.0458 0.06402,0.0732 0.02343,0.0366 0.03846,0.0668 0.04508,0.0903 0.0065,0.0233 0.0035,0.0423 -0.0098,0.0567 -0.01576,0.0102 -0.03466,0.0179 -0.0562,0.0243 -0.01881,0.006 -0.04474,0.0152 -0.07734,0.0284 -0.03276,0.0131 -0.0632,0.0267 -0.09102,0.0403 -0.10458,0.0567 -0.18949,0.14742 -0.257813,0.25536 -0.03504,0.0711 -0.06351,0.14996 -0.08606,0.23486 -0.05768,0.22681 -0.03415,0.46407 0.06604,0.73735 0.02478,0.0752 0.06957,0.17611 0.134561,0.32512 0.357699,0.81979 0.545392,1.78555 0.527546,2.91716 -0.0033,0.20643 -0.01866,0.37189 -0.03844,0.48504 -0.0175,0.12307 -0.07103,0.26394 -0.164618,0.43002 -0.09073,0.16841 -0.213016,0.28457 -0.368661,0.38518 -0.400477,0.23709 -0.902955,0.47052 -1.721457,0.88731 -0.165542,0.0844 -0.234516,0.0708 -0.202652,-0.0539 0,0 2.67e-4,4.6e-4 2.67e-4,4.6e-4 z"
         style="font-style:normal;font-variant:normal;font-weight:normal;font-stretch:normal;font-family:'CMU Serif';-inkscape-font-specification:'CMU Serif';fill:none;fill-opacity:1;stroke-width:0.07;stroke-miterlimit:4;stroke-dasharray:none;opacity:1;stroke:#000000;stroke-opacity:1" />
      <g
         transform="matrix(0.50380817,-0.25395168,0.20603776,0.57796438,15.036322,68.917722)"
         inkscape:path-effect="#path-effect919"
         style="font-style:normal;font-variant:normal;font-weight:normal;font-stretch:normal;font-size:10.5833px;line-height:1.25;font-family:'CMU Serif';-inkscape-font-specification:'CMU Serif';letter-spacing:0px;word-spacing:0px;fill:none;fill-opacity:1;stroke:#000000;stroke-width:0.11943466;stroke-miterlimit:4;stroke-dasharray:none;stroke-opacity:1"
         id="text914"
         aria-label="{">
        <path
           inkscape:original-d="m 86.421593,142.97526 q -0.02067,-0.0258 -0.02067,-0.0672 0,-0.0413 0.0155,-0.0672 0.0155,-0.0258 0.05168,-0.0362 0.03617,-0.0155 0.07235,-0.0207 0.03617,-0.005 0.113688,-0.0155 0.08268,-0.0103 0.144693,-0.0207 0.382405,-0.0724 0.692462,-0.33073 0.315226,-0.25838 0.377237,-0.64079 0.02067,-0.10335 0.02067,-0.31005 v -2.30477 q 0,-0.54776 0.263549,-0.86816 0.284219,-0.35139 0.795814,-0.51159 0.516763,-0.16537 0.987017,-0.16537 0.191202,0 0.186034,0.11886 0,0.0517 -0.031,0.0775 -0.03101,0.0258 -0.08785,0.0362 -0.05684,0.0103 -0.129191,0.0207 -0.06718,0.0103 -0.165364,0.0258 -0.09302,0.0155 -0.175699,0.0362 -0.899167,0.29455 -0.899167,1.16788 v 2.38228 q 0,1.11104 -1.260901,1.42626 1.260901,0.31523 1.260901,1.36426 v 2.35127 q 0,0.25321 0.02067,0.3824 0.07235,0.36174 0.397908,0.62529 0.330728,0.26354 0.816485,0.31522 0.253213,0.031 0.253213,0.13436 0,0.11885 -0.175699,0.11885 -0.749306,0 -1.359086,-0.32556 -0.60978,-0.32039 -0.687294,-0.93534 -0.01033,-0.10335 -0.01033,-0.30489 v -2.32026 q 0,-0.3514 -0.144694,-0.61495 -0.139526,-0.26355 -0.351398,-0.38757 -0.211873,-0.12919 -0.37207,-0.18604 -0.155028,-0.0568 -0.284219,-0.0775 -0.03101,0 -0.09302,-0.005 -0.05684,-0.005 -0.09302,-0.0103 -0.03617,-0.005 -0.07235,-0.0155 -0.03617,-0.0155 -0.05684,-0.0413 z"
           id="path916"
           style="font-style:normal;font-variant:normal;font-weight:normal;font-stretch:normal;font-family:'CMU Serif';-inkscape-font-specification:'CMU Serif';stroke-width:0.11943466;stroke-miterlimit:4;stroke-dasharray:none;fill:none;stroke:#000000;stroke-opacity:1"
           d="m 86.316745,142.83248 c -0.0063,-0.018 -0.0093,-0.0404 -0.0094,-0.0674 -5.7e-5,-0.0269 0.0022,-0.0486 0.0068,-0.0651 0.0047,-0.0164 0.0126,-0.0276 0.02426,-0.0334 0.01168,-0.009 0.02383,-0.015 0.03641,-0.0173 0.01234,-0.002 0.03295,-0.005 0.06236,-0.01 0.01869,-0.002 0.03646,-0.004 0.05349,-0.007 0.01193,-0.002 0.02333,-0.003 0.0342,-0.005 0.166136,-0.0333 0.343396,-0.12923 0.52258,-0.29873 0.180705,-0.16809 0.303735,-0.38176 0.36572,-0.63828 0.01904,-0.0692 0.03605,-0.17299 0.05286,-0.31116 0.09107,-0.74847 0.23895,-1.52147 0.466798,-2.21481 0.112456,-0.3422 0.33294,-0.5877 0.690232,-0.73584 0.263072,-0.11094 0.57375,-0.17678 0.921475,-0.20861 0,0 1e-6,0 1e-6,0 0.04903,-0.004 0.09848,-0.008 0.148137,-0.0113 0,0 0,0 0,0 0.114873,-0.009 0.229829,-0.0126 0.343795,-0.0125 0.244099,-6e-4 0.691439,0.0118 0.81982,0.0154 0.01627,-0.002 0.03166,-0.004 0.04619,-0.006 0.07421,-0.0163 0.131629,-0.0282 0.158526,-0.0344 0.01216,0.005 0.02056,0.0126 0.02463,0.0234 0.01735,0.0461 -0.08136,0.13055 -0.167185,0.21032 -0.04506,0.0417 -0.0669,0.0639 -0.08787,0.0872 -0.01764,0.0197 -0.03147,0.0363 -0.04488,0.0434 -0.01368,0.007 -0.03506,0.0128 -0.06792,0.0128 -0.0081,1.4e-4 -0.01735,3e-5 -0.02773,-4.8e-4 -0.02768,-0.008 -0.0657,-0.02 -0.103602,-0.0357 -0.02267,-0.009 -0.04445,-0.0182 -0.06383,-0.0275 -0.01173,-0.004 -0.02306,-0.008 -0.03386,-0.0119 -0.01488,-9.9e-4 -0.02997,-0.002 -0.04529,-0.003 -0.450756,0.009 -0.863794,0.0723 -1.231857,0.35111 0,0 0,0 0,0 0,0 0,0 0,0 -0.108792,0.0767 -0.200881,0.16428 -0.276538,0.26415 -0.03813,0.0508 -0.07192,0.10438 -0.101652,0.16091 -0.35323,0.67162 -0.586116,1.43287 -0.728911,2.18492 -0.108769,0.57285 -0.346295,1.0272 -0.80671,1.27192 -0.110623,0.0606 -0.23209,0.10775 -0.361458,0.14056 0.72066,0.31409 0.97022,0.69981 1.094005,1.45917 0.132639,0.81367 0.406356,1.59208 0.857701,2.28568 0.07123,0.10946 0.138064,0.19678 0.196112,0.26221 0,0 0,0 0,0 0,0 0,0 0,0 0,0 0,0 0,0 0,0 0,0 0,0 0,0 0,0 0,0 0,0 0,0 0,0 0,0 0,0 0,0 0.02116,0.0238 0.04126,0.0449 0.06012,0.0632 0.07059,0.0642 0.150928,0.12054 0.240862,0.16863 0.174125,0.0758 0.403286,0.1362 0.604528,0.17786 0.217374,0.044 0.395349,0.0583 0.440318,0.0195 -0.0011,0.005 -0.0018,0.009 -0.0024,0.0131 -0.0135,0.0336 -0.02022,0.0472 -0.04344,0.0743 -0.0027,-0.002 -0.006,-0.004 -0.0099,-0.006 -0.08234,-0.0525 -0.09113,-0.0791 -0.02037,-0.0784 0.03061,3e-4 0.243205,0.002 0.300195,0.0119 0.03408,0.006 0.06542,0.0145 0.09104,0.0263 0.05239,0.008 0.0739,0.035 0.07787,0.0529 0,0 0,0 0,0 -7e-5,0.005 -9.84e-4,0.009 -0.0026,0.0136 -0.06828,0.14683 -0.438676,0.18584 -0.86919,0.24551 -0.04663,0.004 -0.09404,0.007 -0.14214,0.009 -0.032,0.002 -0.06421,0.003 -0.09661,0.005 -0.718863,0.0297 -1.216816,-0.16315 -1.487661,-0.55758 -0.04173,-0.0646 -0.09419,-0.16338 -0.152133,-0.29542 -0.333356,-0.75967 -0.53581,-1.57448 -0.63733,-2.40401 -0.03077,-0.25147 -0.09005,-0.47265 -0.180855,-0.66562 -0.08847,-0.19407 -0.187049,-0.33879 -0.301471,-0.44025 -0.114072,-0.10488 -0.206085,-0.18353 -0.28194,-0.23552 -0.07317,-0.0514 -0.134537,-0.0887 -0.186687,-0.11223 -0.01246,-0.002 -0.031,-0.007 -0.05431,-0.0149 -0.02128,-0.007 -0.03791,-0.014 -0.05039,-0.0199 -0.01253,-0.006 -0.02463,-0.0133 -0.0363,-0.0225 -0.01164,-0.0125 -0.0204,-0.0278 -0.02667,-0.0458 0,0 -5e-6,-1.6e-4 -5e-6,-1.6e-4 z" />
      </g>
    </g>
  </g>
</svg>
